<svg width="355" height="100" viewBox="0 0 355 100" fill="none" xmlns="http://www.w3.org/2000/svg">
<path d="M1.64062 48.1649C1.64062 22.4986 22.4448 1.69438 48.1094 1.69438C73.7722 1.69438 94.5773 22.4986 94.5773 48.1649C94.5773 73.8283 73.7722 94.6327 48.1094 94.6327C22.4448 94.6327 1.64062 73.8283 1.64062 48.1649Z" stroke="#231F20" stroke-width="2.90966" stroke-miterlimit="10"/>
<path d="M35.965 36.2554C37.8703 40.8337 35.5061 45.6105 31.3889 50.5276C26.074 56.8752 21.9547 61.1203 17.6486 63.2955C14.7841 64.7425 12.8128 65.0857 11.5738 65.4317C10.5861 65.7076 10.0417 66.1193 10.0417 66.1193C9.85201 65.4178 9.87768 64.2136 9.76656 63.5626C9.18237 60.1402 9.47277 57.8967 10.6047 55.2471C11.4942 53.1651 12.7093 51.2452 13.1498 50.7704C13.4028 50.4978 15.1222 48.6851 15.1735 48.5894C15.3372 48.284 15.6155 48.1144 16.1346 47.5445C16.8044 46.8091 17.7363 45.6831 17.8524 45.5929C18.9731 44.7221 20.0855 43.4959 21.1005 42.5387C21.6997 41.9735 22.3706 41.2732 22.5716 41.1263C22.7511 40.9951 23.6612 40.3621 24.1527 39.978C25.2738 39.1017 26.4103 38.15 27.3528 37.6423C29.5301 36.4695 33.1108 35.8001 34.7409 35.8881C34.747 35.8885 34.7531 35.8888 34.7592 35.8891L35.965 36.2554Z" fill="#4E5A31"/>
<path d="M32.6476 95.4563C29.8342 90.4941 28.9924 86.0674 29.0527 84.9104C29.1855 82.3614 28.6024 78.4791 28.7682 77.5361C28.9284 76.6253 28.5665 73.2191 29.4882 71.0065C30.4788 68.6282 30.0032 66.6663 30.7063 64.421C31.6099 61.5356 32.6493 60.2005 32.939 58.3264C33.2005 56.6345 33.9283 52.5948 34.6859 50.6237C36.0788 46.9997 38.6429 38.8442 41.4136 37.4756L42.9494 37.1624L47.7416 38.1066L50.5415 39.7467C52.6101 41.8246 52.4231 49.9422 52.5674 53.6269C52.6459 55.6309 52.0667 59.4861 51.7852 61.0874C51.4734 62.8611 51.9989 64.3796 51.9294 67.2505C51.8754 69.4844 50.8501 71.1032 51.0136 73.5447C51.1657 75.8161 49.8018 78.7683 49.6677 79.6363C49.5288 80.535 47.8213 83.8477 47.1629 86.1803C46.8195 87.397 44.0902 92.1316 38.7847 96.1576C38.0235 96.7353 36.603 98.3351 35.8915 99.7338C34.4579 97.5347 33.7077 97.0944 32.9552 95.8773L32.6476 95.4563Z" fill="#4E5A31"/>
<path d="M56.0176 34.5006C58.696 36.1087 61.7394 39.5637 63.5647 42.6517C64.1919 43.7129 65.1478 45.2828 65.4482 46.0742C65.5364 46.3067 65.9027 47.0725 66.4421 48.2189C67.0435 49.4971 67.2639 50.1603 67.8545 51.6714C68.1736 52.4882 68.6915 52.9792 69.11 54.5486C69.4255 55.7319 69.3543 57.0995 69.8237 58.1876C70.8046 60.4611 70.5561 62.0809 70.8362 63.0753C70.8605 63.1614 71.1851 64.1256 71.4117 65.1677C71.6732 66.3709 72.1963 68.0448 72.1963 69.0387C72.1963 69.4303 72.3746 70.8056 72.4056 71.2358C72.6211 74.2332 72.574 77.7152 72.7159 78.9623C72.9877 81.3508 71.4952 86.7682 70.675 88.6107C69.9128 90.3227 69.3329 91.1828 68.4542 92.656C68.048 93.3371 66.9904 95.3074 66.9904 95.3074C66.9904 95.3074 66.2741 93.0348 65.3378 91.7028C64.0554 89.8781 61.9058 87.2711 60.6713 85.1716C60.2558 84.4649 59.5634 82.9534 58.9516 81.5068C58.3398 80.0601 57.824 78.9478 57.641 78.5294C57.3802 77.9333 56.8586 76.7411 56.486 75.3999C56.1809 74.3017 56.1032 73.5291 55.9272 72.6802C55.8591 72.3519 55.3962 70.4626 55.3683 69.8488C55.3311 69.0291 54.5644 65.1533 54.3816 64.3739C54.039 62.9136 52.5145 58.3089 52.6459 53.7166C52.7034 51.707 50.9318 40.3759 52.626 38.0253L56.0176 34.5006Z" fill="#4E5A31"/>
<path d="M34.3818 36.5292C34.3818 36.5292 33.1708 37.3091 29.4248 40.4384C28.9092 40.8691 27.6311 42.1759 27.1754 42.6374C24.3989 45.4491 21.1688 48.7621 18.6823 51.6714C17.9428 52.5366 17.2666 53.32 16.5899 54.2346C16.5345 54.3096 15.3867 55.7778 14.6104 56.958C13.5296 58.601 13.0851 59.1257 12.6666 59.9365C12.5966 60.0721 12.2262 60.9689 12.1696 61.1135C11.9342 61.7151 11.6914 62.842 11.6914 62.842C11.6914 62.842 12.8266 60.6252 14.0163 58.7573C15.8174 55.9296 18.417 52.9713 19.9242 51.1513C22.0764 48.5524 23.5652 47.1543 24.9129 45.6411C25.8476 44.5916 29.2649 41.1264 30.9951 39.5719L34.3818 36.5292Z" fill="#A4A883"/>
<path d="M45.6343 39.1173C45.6343 39.1173 45.676 42.6538 45.1225 47.0107C44.9853 48.0915 44.7082 51.1258 44.6186 51.8292C43.9385 57.165 43.3431 60.9079 42.6264 65.5643C42.435 66.8078 40.2756 78.2248 39.9812 79.4608C39.9571 79.5621 38.8507 84.725 38.8262 84.8257C38.1224 87.7222 38.1556 87.7689 37.295 90.801C37.215 91.0828 36.759 93.4509 36.7196 93.6258C36.3343 95.3359 36.1289 96.3261 36.1289 96.3261C36.1289 96.3261 36.4758 91.4877 37.1125 89.0729C38.1929 84.9747 40.4777 73.2808 40.9498 70.7056C41.624 67.0284 42.6176 60.9631 42.8872 58.7464C43.2225 55.9894 43.9303 51.2952 44.3581 48.1842C44.7514 45.3236 45.6343 39.1173 45.6343 39.1173Z" fill="#A4A883" stroke="#A4A883" stroke-width="0.26068"/>
<path d="M67.1788 92.1622C67.5243 90.5895 67.7099 89.0135 67.6633 86.9865C67.6168 84.9596 66.7557 77.1228 66.2849 73.9841C65.3418 67.6967 63.6024 59.0444 63.0063 56.9208C61.9907 53.3026 59.2062 44.2165 57.5926 41.0531C56.3598 38.6364 55.9186 38.176 55.9709 37.8098C56.0957 36.9364 54.6631 35.6127 54.6631 35.6127L54.6602 36.0898C54.6602 36.0898 56.917 40.082 57.7532 42.3164C58.5894 44.5508 61.9541 54.712 62.3357 56.2129C62.8946 58.4111 63.7152 62.4691 64.0268 64.3316C64.3385 66.194 65.4682 71.3068 65.7807 73.9396C66.0933 76.5725 66.7567 82.2549 66.9431 85.0395C67.1295 87.8241 67.1788 92.1622 67.1788 92.1622Z" fill="#A4A883" stroke="#A4A883" stroke-width="0.26068"/>
<path d="M58.8338 31.9528C60.0177 30.7183 58.7386 30.5435 63.1557 30.5393C67.5728 30.5351 73.5616 32.7924 77.5685 35.3484C81.5754 37.9045 82.6859 38.4427 84.2511 41.3157C85.2074 43.0711 85.3342 44.3523 85.4343 45.2087C85.6011 46.6362 85.4384 47.3947 85.4384 47.3947C85.4384 47.3947 85.1361 46.9464 84.3662 46.1512C83.5964 45.3559 82.414 44.3884 80.7635 43.6998C76.1175 41.7613 71.5566 38.7031 71.5566 38.7031C71.5566 38.7031 76.4006 40.6811 79.8047 46.1227C81.6944 49.6075 83.4995 52.4345 84.7114 57.3249C86.294 63.7115 85.3577 70.7932 84.9621 70.4107C84.9621 70.4107 84.4899 69.2303 83.5779 67.7442C82.5457 66.0623 81.292 64.9591 80.3007 63.441C79.4854 62.1924 77.0325 60.2997 74.1027 56.3122C69.0916 49.4918 65.9842 42.5194 58.0312 34.5536C58.0312 34.5536 57.6499 33.1873 58.8338 31.9528Z" fill="#4E5A31"/>
<path d="M60.5886 34.5018C60.4267 34.1998 67.7839 38.3296 70.9412 41.4187C73.9745 44.3864 76.0099 46.5166 79.04 51.7249C80.1967 53.713 82.3356 58.4207 83.068 61.0886C84.0668 64.7269 84.7419 67.9413 84.7419 67.9413C84.8418 67.9804 83.8675 64.2288 82.1787 59.6238C80.8209 55.9213 78.6895 51.5562 76.6432 49.0038C72.0592 43.2863 69.9997 41.471 68.2734 39.954C66.5471 38.437 60.7504 34.8039 60.5886 34.5018Z" fill="#A4A883"/>
<path fill-rule="evenodd" clip-rule="evenodd" d="M55.0339 10.9095C55.5643 10.8443 55.4866 10.458 55.7418 10.1644C55.8079 10.0884 56.1422 9.88997 56.2261 9.82912C56.6387 9.53004 56.8812 9.2366 57.5674 9.19576C57.9174 9.71346 58.6116 9.93467 58.6217 10.8836H58.5085C58.5653 11.3035 58.6911 11.7631 58.5085 12.1672C58.2839 12.6641 57.6591 12.9349 57.4514 13.4508C57.3923 13.5976 57.4373 13.8978 57.4136 14.0171H57.5269C58.1053 13.4805 60.6269 13.4279 61.0757 14.0926C61.2502 14.3077 61.3042 14.6499 61.3023 15.0365C61.0713 15.1185 60.9972 15.4389 61.0002 15.7538C61.1075 15.8226 61.1673 15.9004 61.2268 16.0181C61.4407 16.0432 61.6546 16.0684 61.8686 16.0936C62.4202 15.9889 63.3537 15.9501 63.5297 16.4334C63.7115 16.7264 63.4436 17.2513 63.3787 17.4905C63.2128 18.1019 63.1566 18.9615 63.2655 19.5669C63.3077 19.8017 63.2371 20.0448 63.341 20.2087C63.4673 20.3039 63.6603 20.306 63.794 20.3975C63.9093 20.4764 63.9346 20.6251 64.0205 20.7373L64.1338 20.775C64.2129 20.8698 64.1664 20.974 64.2093 21.1148C64.4817 22.0092 64.216 22.5257 63.6029 22.9433C63.3916 23.0872 62.9552 23.0544 62.8124 23.2668C63.7173 23.3938 64.4424 24.3855 64.4358 25.4188C64.1725 25.6777 63.0967 26.5054 63.492 27.0799C63.6366 27.4952 64.2631 27.7654 64.5868 28.0238C64.9383 28.3043 65.3795 29.3505 65.4929 29.8737C65.549 30.1321 65.3337 30.5441 65.2287 30.7043C64.9372 31.1489 64.4401 31.383 64.2471 31.9501C64.1543 32.2227 64.294 32.5847 64.2093 32.894C64.1174 33.2297 63.8666 33.554 63.6053 33.7246C63.3313 33.9034 62.9491 33.9899 62.5104 33.9888C62.2743 33.9883 62.1614 33.9164 61.9441 33.9888C61.7419 34.0562 61.1985 34.471 61.0757 34.6307C60.5536 35.31 60.4662 36.3432 59.9809 37.0847C59.8813 37.2367 59.6901 37.3318 59.5656 37.4622C59.0523 37.4615 58.943 37.637 58.6478 37.4732C58.3267 37.295 57.8466 37.2096 57.4929 37.0634C57.3293 36.9958 57.2075 36.4653 56.9606 36.5183C56.0315 36.7181 55.9241 38.0696 54.8477 38.0693C54.6589 37.8112 54.1253 37.5752 53.9908 37.2496C53.8962 37.0209 54.0664 36.394 54.0158 36.1786C54.0284 36.0276 54.041 35.8765 54.0535 35.7255C54.0149 35.5024 53.8806 35.3057 53.827 35.0837C53.5604 34.9217 52.5977 34.3419 52.6189 35.197C52.8246 35.3397 52.791 35.6184 52.8832 35.8765C53.1067 36.5025 53.1606 37.6449 52.9964 38.406H52.9209C52.6306 38.5751 52.3161 38.2014 52.1281 38.1418C51.7387 38.0183 51.5461 38.3946 51.2975 38.4438C51.2094 38.4312 51.0238 38.7525 50.9358 38.7399C50.7908 38.4811 50.3537 38.2132 50.2651 37.883C50.1199 37.3413 50.7624 36.5507 50.2027 36.4428C50.1504 36.4846 50.0942 36.4992 50.0139 36.5184C49.9569 36.6329 49.9179 36.6519 49.9006 36.8204C50.0162 37.0041 49.838 37.3126 49.7874 37.4622C49.6454 37.8817 49.7981 38.2627 49.6741 38.7458C49.6227 38.9463 49.51 39.1681 49.4476 39.3499C49.3167 39.731 49.2741 40.081 49.1078 40.4447C49.0353 40.6033 48.8676 40.7304 48.768 40.86C48.3284 41.4326 48.0344 42.1808 47.4466 42.5967C47.1119 42.8335 46.7601 42.916 46.3518 43.0875C46.0215 43.2262 45.6091 43.3262 45.1814 43.4273C45.0052 43.4273 44.6666 43.7695 44.4904 43.7695C44.3986 43.7891 44.1934 43.7727 44.0434 43.7322C43.0472 43.4636 42.5383 42.8933 41.7707 42.391C41.2864 42.074 40.5875 41.5121 39.9714 41.3508C39.9369 41.7705 39.6087 41.7908 39.5184 42.1059C39.6402 42.2587 39.6076 42.698 39.4428 42.7855C39.2083 42.9117 38.7266 42.7325 38.2687 42.8381C38.0673 42.901 37.7565 42.7226 37.5552 42.7855C37.3585 42.9057 37.3507 43.0682 37.0266 43.0875C36.9522 43.0037 36.8013 43.0154 36.7246 42.9365C36.6102 42.8189 36.6268 42.5878 36.5358 42.4457C36.1937 41.9117 35.7206 41.6488 34.8746 41.6529L34.6481 41.4263C34.5432 41.2154 34.6067 40.9977 34.5348 40.7468C34.4554 40.4695 34.3059 40.1411 34.2328 39.8784C34.0019 39.85 33.9037 39.7523 33.6665 39.7274C33.5841 39.7898 33.4606 39.7827 33.3645 39.8407L32.9869 40.2182C32.7353 40.2056 32.4835 40.1931 32.2319 40.1805C32.1564 40.0924 32.0808 40.0043 32.0053 39.9162C32.0004 39.3778 32.1172 39.1419 32.1186 38.7081C32.0129 38.6267 31.9264 38.4792 31.8166 38.406C31.6868 38.3196 31.5138 38.3539 31.4013 38.255C31.2224 38.0979 31.1741 38.4896 30.8174 38.4791C30.754 38.4871 30.3479 38.4178 30.0723 38.3301C29.6274 38.1884 29.1519 37.7145 29.0291 37.2497C28.9202 36.8374 29.3365 36.096 29.2116 35.7255C29.0392 35.2145 28.4342 35.2629 28.3055 34.895C28.1292 34.6691 28.0645 33.8719 28.1922 33.4981C28.2225 33.4095 28.3611 33.2531 28.381 33.1583C28.3862 33.1335 28.3092 32.9857 28.3055 32.9695V32.2522H28.1545C28.05 31.2998 27.5342 30.5724 27.0974 29.9115C26.9565 29.6985 26.6419 29.5223 26.5688 29.2696C26.6376 29.137 26.6207 28.8656 26.7576 28.7033C26.9703 28.4511 27.0472 28.4118 27.1663 28.0847C26.7488 28.0934 26.1921 28.1247 25.8623 28.0101C25.8207 27.4903 25.9751 26.5459 25.776 26.0606C25.6221 25.6855 25.4087 25.4683 25.3984 24.928C25.472 24.8552 25.4832 24.7884 25.5872 24.7392C25.8863 24.4913 26.3324 24.7566 26.6821 24.4749C26.3879 24.2802 26.25 23.6446 26.3423 23.1913H26.5311C27.2518 23.9404 28.4909 23.2314 29.1738 23.078V22.9648C29.0333 22.8358 28.906 22.6701 28.8718 22.4362H28.7585C28.7134 22.0352 28.7419 21.761 28.834 21.4546V20.7373C28.8797 20.5396 29.0341 20.2707 28.985 20.02C28.9386 19.7825 28.9216 19.5157 28.834 19.3027C28.7568 19.1148 28.6269 19.081 28.6075 18.8119C28.6687 18.7487 28.6943 18.6871 28.7208 18.5853C28.8502 18.5553 28.9247 18.469 29.0228 18.4343C29.1686 18.3828 29.3401 18.4789 29.4381 18.4721C29.5521 18.4642 30.1623 18.2727 30.2687 18.1323C30.6679 17.6052 30.352 16.7498 29.8534 16.5844C29.7056 16.5354 29.473 16.6083 29.3248 16.5844C29.2226 16.4244 29.1458 16.3283 29.1361 16.0558C29.2734 15.931 29.3409 15.7262 29.4758 15.6028C29.5891 15.565 29.7024 15.5273 29.8156 15.4895C30.0174 15.3552 30.2042 15.2261 30.3819 15.1497C30.464 15.1145 30.4868 15.1883 30.5329 15.1875C30.6029 15.1862 30.6698 15.0606 30.7217 15.0365C30.8904 14.958 31.1058 14.9924 31.2503 14.8855L31.288 14.7722C31.4582 14.4827 31.3969 14.124 31.7033 13.9794C31.9917 13.8147 32.2958 14.1617 32.6849 14.0549C33.3511 13.8721 33.9013 13.4098 34.4593 13.111C34.646 13.0111 35.0365 12.9933 35.1012 12.7713H35.6297V12.7335C35.397 12.5987 35.1013 12.0795 35.3654 11.7142C35.4866 11.3814 36.3449 10.7973 36.7246 10.6948C37.2546 10.5517 37.7937 10.6344 38.197 10.3928C38.9895 9.91799 39.0969 8.87846 39.3296 7.86328C39.4281 7.79859 39.5183 7.6802 39.6316 7.63675C39.943 7.51733 40.8579 7.52764 41.1795 7.63675C41.3858 7.70672 41.7998 8.00985 42.0479 7.90103C42.4785 7.83324 42.5891 7.4273 42.8784 7.22146C43.0605 7.09195 43.3826 6.94284 43.5958 6.88168C44.0499 6.75138 44.5059 6.90115 44.7661 7.07045C45.8759 7.79239 45.309 9.02487 45.7855 10.204C45.878 10.4329 45.9347 10.7992 46.1253 10.9213C46.1856 10.9796 46.4218 11.0449 46.465 10.9968C46.7368 10.9059 46.8824 10.6417 47.1069 10.506C47.5292 10.2508 48.3891 10.3654 48.8435 10.4683V10.2795C48.6213 9.9528 48.7405 9.52018 48.768 9.10915C48.9343 8.99801 49.0084 8.83083 49.1456 8.69386C49.4207 8.41917 49.7919 8.18549 50.2027 8.05204C50.8743 7.83386 51.4045 8.38451 51.9771 8.05204C52.3717 7.82291 52.2678 7.12868 52.8832 7.1082C53.2271 7.62909 53.7584 8.09337 54.4311 8.27856C54.7079 8.26598 54.9848 8.25339 55.2617 8.24081C55.4168 8.27421 55.6006 8.35351 55.7525 8.39183C55.8126 8.49751 55.892 8.61298 55.979 8.69386C55.9916 8.94552 56.0042 9.19727 56.0167 9.44893C55.829 10.0306 55.0712 10.686 55.0339 10.9095Z" fill="#D50037" stroke="#D50037" stroke-width="0.26068" stroke-miterlimit="10"/>
<path fill-rule="evenodd" clip-rule="evenodd" d="M66.2147 29.2429C66.129 28.8623 65.8398 28.4714 65.4997 28.1052C65.2145 27.798 64.2225 27.2944 63.9043 26.9282C63.586 26.562 64.0683 26.4077 64.4535 26.1697C65.6174 25.4504 64.5799 23.6195 63.8214 23.0179C63.7627 22.9911 64.2199 22.4225 64.2791 22.3641C64.5335 22.1131 64.763 21.8671 64.7238 21.0824C64.7113 20.8324 64.501 20.3162 64.035 19.9577C63.865 19.8269 63.6558 19.3699 63.6558 18.8984C63.6558 18.3491 63.8127 17.9045 64.0743 16.7275C64.2227 16.0593 63.7081 15.5897 63.7081 15.5897C63.7081 15.5897 63.2765 15.1974 62.5965 15.2105C62.4228 15.2138 61.7595 15.3413 61.7595 15.3413C61.7595 15.3413 62.0832 14.5957 62.0734 14.1512C62.0603 13.5627 61.2364 13.615 61.2364 13.615C61.2364 13.615 61.1614 12.9985 60.7133 12.8303C60.28 12.6677 59.9081 12.652 59.4752 12.6778C59.0615 12.7024 58.3282 13.0352 58.3157 13.0352C58.3157 13.0352 59.0199 12.4139 59.1265 12.2942C59.1895 12.2233 59.3914 11.7557 59.2224 11.0648C59.418 11.0577 59.6134 10.5973 59.5188 10.411C59.5188 10.411 58.9608 8.93316 57.6269 8.82852C57.0323 8.78189 56.3453 9.26011 56.3453 9.26011C56.3453 9.26011 56.4995 8.94071 56.4107 8.56698C56.3219 8.19325 56.3191 8.05694 56.014 7.86077C55.5716 7.57636 55.3252 7.44229 54.5929 7.53385C54.0772 7.52015 53.9145 7.67389 53.7559 7.33765C53.6582 7.13059 53.5498 6.81601 53.4682 6.76223C53.3046 6.58607 52.9967 6.25886 52.7358 6.29145C52.3173 6.34375 51.7942 7.03689 51.6242 7.49459C51.1142 7.35077 50.4291 7.32668 49.8849 7.46844C48.889 7.72792 48.3597 8.44364 48.1325 9.49551C47.2237 9.4937 46.8378 9.66552 46.3016 10.1886C46.3016 10.1886 46.2358 9.93303 46.1708 9.83554C46.1185 9.75705 46.1926 9.6263 46.1141 8.94624C46.1411 8.70592 46.0879 8.09621 45.8787 7.58616C45.7185 7.1956 45.5042 6.81689 45.0287 6.31761C44.7671 6.04299 44.3302 6.00214 43.9824 5.92527C43.199 5.75209 43.0644 6.19389 42.6127 6.63881C42.5251 6.71969 42.2572 7.26561 41.7679 7.2069C41.2787 7.14819 40.1986 6.50943 39.8141 6.69752C39.3681 6.9156 38.8942 7.55864 38.7724 8.27491C38.7724 8.41332 38.6789 8.65324 38.6789 8.79165C38.597 9.11923 38.6881 9.52714 38.4898 9.7527C38.3876 9.8689 37.9099 9.7597 37.759 9.82894C37.6332 9.82894 37.0629 9.92676 36.9371 9.92676C36.3649 10.0914 36.0018 10.1369 35.5475 10.4748C35.1766 10.7506 34.856 11.278 34.7646 11.5316C34.6873 11.7462 34.8041 12.0374 34.687 12.2183C34.5267 12.2949 34.1477 12.424 34.0266 12.5171C33.6069 12.8401 33.4876 13.1648 32.8995 13.3029C32.4854 13.4002 32.2566 13.0489 31.6375 13.2315C31.4391 13.29 31.2474 13.4986 31.1533 13.676C31.0553 13.8609 31.0378 14.063 30.8755 14.176C30.6176 14.3556 30.3754 14.3348 29.8595 14.4697C29.681 14.5164 28.9705 14.9459 28.9705 14.9459C28.3973 15.2596 28.2584 15.4673 28.3038 15.7397C28.3356 15.9302 28.1609 16.5016 28.5737 16.7715C29.1067 17.12 29.7358 17.1073 29.6849 17.5653C29.6849 17.5653 29.6849 17.843 29.4468 17.8589C29.2087 17.8748 29.0265 17.8525 28.5871 17.999C27.9441 18.3244 28.2142 18.1749 28.0237 18.3257C27.8333 18.4765 27.7533 18.9567 27.7533 18.9567C27.7533 18.9567 28.2393 18.9144 28.3392 20.0158C28.3636 20.2847 28.3557 20.6977 28.3392 20.8833C28.2906 21.4312 28.2547 21.3973 28.2153 21.8073C28.1893 22.0775 28.0688 22.539 28.0688 22.6523C28.1202 22.7185 27.6632 22.8664 27.5167 22.8213C27.4112 22.7888 27.3364 22.81 26.9196 22.6072C26.5027 22.4044 26.1333 22.132 26.052 22.0551C26.052 22.0551 25.8749 22.4201 25.8492 22.8438C25.8235 23.2675 25.8154 23.3396 25.8379 23.5199C25.8533 23.6434 25.9575 23.8554 25.9055 23.8917C25.8426 23.8917 25.529 23.948 25.4661 23.948C25.1939 24.0757 25.0168 24.2407 24.9063 24.5349C24.499 25.6197 25.3055 26.0806 25.4999 26.9112C25.6238 27.4408 25.4436 27.6549 25.5675 28.0267C25.5853 28.296 26.4238 28.207 26.4238 28.207C26.4238 28.207 26.1771 28.395 26.052 28.7703C25.8717 29.3111 25.9151 29.3655 26.1421 29.6942C26.337 29.9765 26.5645 30.1169 26.8069 30.4153C26.9709 30.6172 27.148 30.8313 27.3027 31.4406C27.3027 31.5539 27.3928 31.6998 27.4829 32.2068C27.5393 32.68 27.6857 32.6237 27.573 33.2772C27.5661 33.3177 27.3862 33.7121 27.3702 33.7504C27.3099 33.8951 27.1644 34.2561 27.269 34.6397C27.316 34.8118 27.4362 35.138 27.6352 35.1977C28.0868 35.3332 28.1932 35.4069 28.0363 35.7121C28.0363 35.7121 28.4293 35.6545 28.497 35.925C28.5206 36.0196 28.3937 36.4183 28.4286 36.5055C28.4112 36.7932 28.4314 36.9937 28.5871 37.5474C28.6885 37.908 29.0867 38.469 29.5673 38.6966C29.7814 38.798 30.8631 38.9671 31.1898 38.9107C31.2149 38.9107 31.4463 38.922 31.4715 38.922C31.4151 39.1924 31.1629 39.571 31.3363 39.9698C31.4489 40.229 31.6317 40.5318 32.195 40.8473C32.4663 40.8765 32.9677 40.9152 33.2412 40.8037C33.3508 40.759 33.5551 40.5247 33.7207 40.4986C33.8864 40.4724 33.9736 40.5073 33.9823 40.638C34.0012 40.9213 34.0084 41.0217 34.0259 41.3006C34.0433 41.5796 33.9652 41.7325 34.4182 42.1289C34.8367 42.4951 35.1961 42.1422 35.508 42.2946C35.6883 42.3826 35.9069 42.3729 36.0486 42.7305C36.079 42.8074 36.0573 43.2187 36.2927 43.3495C36.5281 43.4803 36.4502 43.4367 36.903 43.4367C36.9902 43.4367 37.4174 43.2798 37.8272 43.1577L38.2631 43.0356C39.196 42.9572 38.8614 43.2175 39.3267 43.2449C40.0054 43.2616 40.1993 42.7808 40.1835 42.1125C40.9349 42.0783 41.1674 42.2821 41.5611 42.7387C41.8457 43.0689 42.7636 43.1969 42.9273 43.4104C43.1891 43.752 43.9891 43.9983 44.3161 44.0479C44.6918 44.1048 45.8113 43.3662 45.8113 43.3662C45.8113 43.3662 46.7799 43.69 47.2845 43.2783C48.1497 42.5724 48.7178 42.2994 49.2233 41.4408C49.3339 41.253 49.6722 40.6209 49.747 40.4161C49.9633 39.8241 50.1551 38.9158 50.2821 38.7425C50.2821 38.7425 51.1815 39.1638 51.2385 39.1296C51.2385 39.1296 51.8937 38.1345 52.229 38.697C52.3084 38.8302 52.5619 39.0346 52.9276 39.0775C52.9276 39.0775 53.6513 39.1117 53.6513 38.9467C53.6513 38.8246 53.8169 37.8481 53.8039 37.7828C53.8692 37.799 53.8823 38.1489 54.2093 38.3058C54.3334 38.3654 54.6959 38.5306 54.8501 38.5413C55.2293 38.5674 55.6609 38.4628 56.0271 38.1882C56.3932 37.9135 56.511 37.5343 56.511 37.5343C56.9992 37.0765 57.5972 37.268 58.1239 37.5997C58.8301 38.0443 59.3735 38.3088 60.2686 37.8612C60.5302 37.7304 60.8047 37.2354 61.001 36.7365C61.0897 36.5111 61.2501 36.076 61.3149 35.8211C61.3855 35.5428 61.7421 34.9187 62.0821 34.7618C62.4028 34.6138 62.8966 34.6957 63.2765 34.5656C63.7392 34.4071 64.137 34.2245 64.4535 33.9117C64.7886 33.5806 64.9505 33.2636 64.9505 32.7086C64.9505 32.1593 65.1902 31.597 65.212 31.5054C65.2373 31.3994 65.8445 31.0742 66.0447 30.6161C66.244 30.16 66.3323 29.7661 66.2147 29.2429ZM60.9879 14.2035C61.6592 14.8792 60.5957 15.5685 60.9095 15.9952C61.2364 16.4398 61.439 16.1783 62.0734 16.1783C62.6488 16.1783 63.1092 16.2216 63.3419 16.466C63.6035 16.7406 63.2634 17.3683 63.1457 17.8522C63.028 18.3361 63.0431 18.4993 63.0673 19.0292C63.0855 19.4271 63.1206 19.6478 63.1591 19.877C63.1719 19.953 63.1659 19.8884 63.1789 19.973C63.3291 20.4181 63.7023 20.5886 63.9067 20.861C64.2382 21.3032 64.3631 21.7921 63.8132 22.4366C63.6251 22.657 63.4596 22.9526 62.8842 22.4643C62.4642 22.108 61.9142 21.8785 61.28 21.9586C60.0635 22.1123 60.1379 22.3161 59.2224 22.2464C58.8014 22.2143 58.4879 22.2027 58.2285 21.9063C58.0454 21.6971 57.8623 21.6186 57.6007 21.2786C57.4699 21.1085 57.3594 20.9647 57.3131 20.8078C57.1125 20.4678 56.8597 20.1888 56.2668 20.0754C56.0053 20.0493 55.4299 20.0929 54.959 20.3893C54.9059 20.3335 53.8169 21.7407 53.7559 21.5401C53.6576 21.2173 53.272 20.4285 53.272 20.4285C53.272 20.4285 53.2589 20.3893 53.5859 19.7747C53.8474 19.5392 53.7359 19.2226 53.8474 18.7938C53.8959 18.6074 53.9993 18.2324 53.939 18.0179C53.793 17.4988 53.4439 17.0804 53.1979 16.6578C53.5435 16.5333 54.2703 16.7624 54.7236 16.466C55.3096 16.0828 55.7641 15.2035 56.2755 14.7397C56.6504 14.3997 57.4619 14.1283 58.1762 13.9027C58.8388 13.6935 60.38 13.5558 60.9879 14.2035ZM57.9059 12.8478C57.8065 12.9806 57.4351 13.4755 57.4351 13.4755C57.4351 13.4755 56.8771 13.676 56.6156 13.833C56.3487 13.9931 56.2145 14.1032 55.9443 14.3822C55.5064 14.8342 55.1782 15.3384 54.5737 15.612C54.1731 15.7933 53.6314 15.6358 53.139 15.6875C53.1342 14.9538 53.4196 14.1394 53.6513 13.676C54.2093 12.5601 55.2374 12.0905 56.2581 11.7231C56.694 11.5661 57.2837 11.4095 57.7315 11.3395C58.0105 11.2959 58.5482 11.2833 58.586 11.2959C58.5692 12.0914 58.2424 12.3981 57.9059 12.8478ZM50.1857 8.16157C50.6485 8.00342 51.4145 8.41364 51.7811 8.30543C52.1395 8.19962 52.3958 7.04995 52.7489 7.03688C53.102 7.02381 53.1421 7.85786 53.4812 8.04386C53.8866 8.26617 54.0966 8.32481 54.3052 8.35773C55.0506 8.47545 55.4167 8.10927 55.7699 8.86778C56.1689 9.47984 55.6552 9.69921 55.4822 10.0317C55.4172 10.1565 54.9918 10.8505 55.1683 11.0648C55.4037 10.7379 55.5868 10.4894 56.2799 10.0317C56.9534 9.58691 57.2138 9.49126 57.3654 9.37778C58.2023 9.48242 58.4853 10.1905 58.5378 10.7417C56.582 10.993 54.3836 11.8713 53.6164 13.1355C53.4263 13.4487 53.2677 13.676 53.0846 14.1294C52.978 14.3932 52.8356 15.3635 52.823 15.3761C52.675 15.0708 52.3086 14.914 52.1517 14.3909C52.0247 13.9678 52.3249 13.4039 52.384 13.1202C52.4398 12.8518 52.1792 12.6759 52.233 12.4407C52.3091 12.1072 52.59 11.7572 52.686 11.3836C52.7746 11.0388 52.8704 10.1351 52.7993 9.83564C52.7284 9.53719 52.5988 9.25174 52.5728 8.89179C52.4747 8.89934 52.4445 8.90851 52.384 8.92954C52.2555 9.44809 52.5231 10.1721 52.3462 10.855C52.2118 11.3735 52.0239 11.8572 51.8177 12.2896C50.5518 12.5557 49.5184 10.7037 49.4795 10.6463C49.2625 10.3267 48.8672 10.1028 48.6948 9.83551C48.6948 9.83551 48.6163 8.69777 50.1857 8.16157ZM46.1168 11.3836C46.4345 11.1527 46.6808 10.8556 47.0607 10.5907C47.4406 10.3259 48.1194 10.1494 48.6841 10.402C49.2489 10.6545 49.67 11.6903 49.93 12.1009C50.2205 12.5597 51.415 12.608 51.6289 13.158C51.8428 13.7079 51.54 14.1399 51.7044 14.6304C51.876 15.1423 52.2488 15.6271 52.4595 16.1028C52.5643 16.3393 52.7257 16.5973 52.8405 16.8321C53.1543 17.4747 53.6121 17.7607 53.5205 18.7284C53.429 19.6962 52.7436 20.2669 52.6661 21.0519C52.616 21.5595 51.7454 21.7416 51.2537 21.7842C50.5751 21.8431 49.6844 22.8828 49.2135 23.2838C48.7649 23.666 48.1325 23.4756 47.3216 23.1618C47.0343 23.0506 46.2316 22.7888 46.0414 23.0117H46.0036C46.1448 22.6479 46.3664 22.7698 46.0574 22.5515C46.6154 21.732 47.7189 22.1559 48.3068 21.854C48.9007 21.549 49.0329 21.1877 49.3879 20.9647C49.7346 20.747 50.2403 20.7993 50.4864 20.4591C51.0793 19.6395 51.1471 19.1568 51.1011 18.5584C51.0749 18.2184 51.0444 17.704 50.8003 17.2157C50.5562 16.7275 50.1949 16.2888 50.1377 16.309C50.0732 16.4917 50.068 17.0065 49.9633 17.5819C49.8933 17.967 49.5753 18.359 49.3879 18.5933C48.9694 19.1164 48.9694 19.0466 48.6381 19.1164C48.3068 19.1862 47.65 19.3431 47.5745 19.3431C47.5293 19.1796 47.2853 17.4956 47.3652 17.2506C47.6442 16.7624 47.836 15.9952 47.4524 15.8382C47.0746 15.6837 46.6503 15.9952 46.6329 16.4834C46.6154 16.9716 46.8944 17.5645 46.8944 17.5645C46.8944 17.5645 46.9467 18.7541 46.9467 18.7851C46.9342 18.7851 46.6154 18.6238 46.4062 18.4145C46.1969 18.2053 46.101 18.0266 45.7872 17.7476C45.4733 17.4686 45.2771 17.2506 45.0287 16.4311C45.1333 16.2393 45.6347 15.9443 45.6215 15.5941C45.6041 15.132 45.4471 14.9359 44.9415 14.9664C44.7156 14.98 44.1546 15.3641 44.122 15.6987C44.1351 16.8788 44.9641 17.82 45.5169 18.4189C46.3003 19.2676 46.4033 19.6397 46.4411 19.8662C45.918 19.7616 44.0871 21.6797 43.9476 21.854C43.6757 21.724 43.9698 21.1351 43.7006 20.973C43.1712 20.6542 42.437 21.0464 41.9262 20.8975C40.8706 20.5898 40.4866 19.8304 40.0385 18.9343C39.9734 18.91 40.0016 18.9269 39.963 18.8966C39.2585 18.9027 39.3821 19.3074 38.9814 19.4629C38.9288 19.5025 38.8324 19.5239 38.7549 19.5384C38.6469 19.223 38.7112 18.9116 38.7171 18.519C38.868 18.3623 39.0221 18.3007 39.2396 18.2097C39.4283 18.1719 39.4606 18.1689 39.6493 18.1312C39.815 18.105 39.9283 17.826 40.0008 17.6129C40.0123 17.3835 39.9774 17.2273 39.9298 16.8225C39.9181 16.5732 39.8809 16.4453 40.0489 16.37C40.2058 16.3015 40.6472 16.4324 40.8426 16.3065C41.2731 16.2163 41.4041 15.8572 41.5093 15.4493C41.5344 15.3522 41.5699 14.9476 41.5728 14.9096C41.6046 14.4968 41.6566 13.7724 41.7752 13.5733C41.813 13.5607 41.8507 13.5481 41.8885 13.5355V13.4223C42.481 12.7494 43.7227 12.6768 44.569 12.2519C45.0884 11.991 45.6574 11.7175 46.1168 11.3836ZM47.6616 26.6143C47.788 27.1326 47.4001 27.8523 47.5222 28.6196C47.5581 28.7239 47.8712 29.1961 47.9406 29.4566C48.0574 29.8945 48.7007 30.4813 48.8822 30.9212C49.1159 31.4876 48.8729 31.8699 48.7951 32.0024C48.6207 32.2988 48.0357 32.2942 47.2257 32.2116C46.3713 32.1244 45.9354 31.9849 45.9354 31.9849C45.5518 31.7059 45.661 31.3282 45.7261 30.6771C45.761 30.3284 46.4473 29.4914 46.441 29.4914C46.8596 28.8637 46.7504 28.4491 46.8072 28.2011C46.6958 27.567 45.7325 27.5545 45.4437 27.0676C45.2803 26.7921 46.6852 26.283 46.6677 25.725C46.6306 24.5367 45.36 24.5742 45.4297 23.9813C45.5458 22.9941 46.2667 23.2141 46.6154 23.2838C47.1282 23.3864 47.5919 24.0859 49.0043 23.807C50.0866 23.4696 50.3815 22.2143 51.2886 22.133C53.1674 22.1678 53.1151 20.6508 53.1151 20.6508C53.1151 20.6508 53.3243 21.6186 53.1674 22.1678C53.0105 22.7171 52.6584 22.9787 52.6835 22.9787C52.432 23.3595 51.9341 23.4319 51.7681 23.4756C51.4368 23.5628 50.4819 23.7445 50.0854 23.7546C49.4054 23.7721 48.2022 23.929 48.2196 24.6265C47.59 24.718 47.3333 25.2681 47.6616 26.6143ZM43.9127 35.4723C43.9127 35.4723 43.3372 35.978 42.3608 36.257C41.3843 36.536 40.1769 36.5779 40.0385 36.7163C39.6896 37.3468 40.3648 37.6478 40.1895 38.3775C40.0532 38.9449 39.7513 39.1987 39.359 39.7366C39.242 39.897 39.0856 40.3088 38.9257 40.4245C38.7989 40.5449 38.2414 40.1758 38.1149 40.1106C38.0764 39.9226 37.9151 39.4896 37.8272 39.2998C37.782 39.2023 37.7573 38.8863 37.7733 38.7173C37.8496 37.9125 38.4583 37.7372 38.8472 37.2509C39.0097 37.0477 39.3816 36.3661 39.3589 36.301C39.3212 36.2885 39.2834 36.2759 39.2457 36.2633C38.9598 36.7069 38.8211 37.0155 38.3154 37.5125C38.1644 37.5628 37.9171 37.898 37.7661 37.9484C37.678 38.0365 36.7025 38.7766 36.284 38.55C36.284 38.55 35.8742 38.2623 35.8742 37.8961C35.8742 37.6781 35.8481 37.4776 35.8829 37.2509C35.9252 36.976 36.1706 36.2657 36.0922 36.1611C36.066 36.039 34.8584 35.4541 34.2264 35.1323C34.0726 35.054 33.9829 34.8452 33.8864 34.3912C33.8387 34.1672 33.8942 33.9618 33.8341 33.842C33.8491 33.7644 34.4832 33.6744 34.7495 33.5978C35.1729 33.4761 35.5944 33.2998 35.8219 32.9701C35.8132 33.2753 36.1886 33.9756 36.406 34.1122C36.5724 34.2168 37.353 34.4642 37.6528 34.3912C37.8889 34.3338 38.3829 34.1122 38.6205 34.1122C39.0303 34.1122 39.3066 34.2685 39.6755 34.1122C40.1899 33.8943 40.6704 32.6825 40.6694 32.107C41.1777 31.9993 41.0674 31.9086 41.4585 31.9857C41.7574 32.0445 42.3869 32.8481 42.7793 32.7347C43.3024 32.4993 43.6608 31.6711 43.686 31.6711C44.2963 31.3049 44.2363 31.2605 44.6276 31.2002C44.704 31.1885 44.8257 31.4165 44.8543 31.8977C44.8891 32.4841 44.0637 32.4093 43.7558 32.944C43.5593 33.2851 43.5673 34.5269 43.5465 34.6876C43.5087 34.9794 43.9127 35.4723 43.9127 35.4723ZM43.5009 31.1615C43.2172 31.4411 43.0938 32.1348 42.7095 32.2814C42.3382 32.3719 41.9249 31.6687 41.4947 31.6052C41.0592 31.5411 40.6977 31.6913 40.1044 31.9404C39.5519 32.0853 39.3889 31.9902 39.4296 31.6098C39.4596 31.2664 40.0003 30.8173 39.5927 30.7629C39.5801 30.7503 39.3481 30.9667 39.0947 31.4685C39.0303 31.8018 39.039 31.9239 39.2744 32.1942C39.5273 32.3773 39.8454 32.4973 40.0678 32.3162C40.1307 32.3162 40.3187 32.2639 40.3817 32.2639C40.2629 32.8747 39.9571 33.6797 39.4139 33.8507C39.0426 33.9676 38.7955 33.6253 38.4026 33.7722C38.1651 33.861 37.9287 33.9812 37.6179 34.0687C37.4231 34.1235 36.8783 34.0197 36.7635 33.9815C36.138 33.7733 36.1503 33.1345 36.3387 32.3746C36.3915 32.1613 36.3426 31.9254 36.4519 31.7706V31.4685C36.349 31.4479 36.3099 31.4157 36.2254 31.4685C35.9579 31.5853 35.7628 32.5445 35.3571 32.8277C35.0422 33.0474 34.5214 33.1872 34.1112 33.2807C33.8314 33.3445 33.4907 33.2273 33.2806 33.3562H32.752C32.818 33.061 32.9385 32.8027 32.8275 32.4879C32.7143 32.1665 32.3916 31.6213 32.601 31.091C32.7759 30.6483 33.2965 30.5065 33.5071 30.0716L33.5449 30.0339L33.4316 29.9206C32.7393 29.9486 31.8012 30.2059 31.4307 29.6564C31.3826 29.578 31.4495 29.0833 31.4684 28.939C31.5096 28.6254 31.3786 28.4663 31.4684 28.0707C31.5156 27.8628 31.6095 27.4988 31.5439 27.2024C31.3507 26.3295 31.1704 25.9761 30.6378 25.4657V25.3147C31.1731 24.8232 31.8294 24.3546 32.2235 23.729C32.6437 23.0619 32.7255 22.0359 33.4316 21.6526C33.6116 21.5548 33.9892 21.6539 34.2622 21.6526C34.6377 21.6508 34.8971 21.5312 35.1683 21.4638C35.2438 21.4764 35.3193 21.489 35.3948 21.5016C35.6875 21.4036 35.9349 21.0961 36.1876 20.973C36.395 20.872 36.5135 20.8691 36.6784 20.7465C36.8685 20.6051 37.0067 20.3034 37.2447 20.2179C37.5856 20.0955 37.9209 20.1774 38.1886 20.2557H38.6039C39.282 20.2564 39.7098 20.0521 39.8497 19.5384C40.0733 19.6562 40.0853 20.0147 40.2273 20.2179C40.4909 20.5951 40.9143 20.9317 41.3599 21.124C41.6283 21.2399 42.1365 21.37 42.568 21.275C42.79 21.2262 43.1525 21.138 43.3608 21.275C43.3986 21.2876 43.4363 21.3002 43.4741 21.3128C43.5611 21.7566 43.5016 22.3197 43.7092 22.4075C44.0625 22.557 44.9883 22.3653 45.1584 22.3668C45.3285 22.3683 45.6296 22.5855 45.6792 22.7381C45.7287 22.8908 45.4021 23.3467 45.2292 23.6326C45.1703 23.7684 45.0911 24.0321 45.1376 24.1949C45.1899 24.378 45.1403 24.5244 45.4123 24.7834C45.7784 25.1322 47.2083 25.2019 45.4297 26.4225C45.1115 26.7582 44.9274 26.8016 45.0461 27.1548C45.167 27.5146 45.3948 27.4687 45.9528 27.8349C46.5108 28.2011 46.3093 28.3227 46.3364 28.5673C46.3047 29.0201 46.1756 29.3638 45.8656 29.7007C45.4646 30.1366 45.1462 30.3598 44.9415 30.6946C44.7603 30.9935 43.6639 31.0346 43.5009 31.1615ZM35.4293 11.6711C35.7626 11.3534 36.1375 11.0895 36.5889 10.8992C36.9258 10.7572 37.4423 10.7926 37.8414 10.6839C38.2974 10.5598 38.6287 10.4732 38.8734 10.1363C39.0959 9.82997 39.0182 9.4414 39.0744 9.17695C39.0922 9.09316 39.0449 8.66514 39.0744 8.53107C39.1641 8.12448 39.4754 7.75315 39.8572 7.7091C40.3661 7.65039 40.9788 7.77584 41.2468 7.86567C41.4724 7.94125 41.8762 8.33391 42.2213 8.2531C42.6143 8.16106 42.7143 7.44859 43.0083 7.25895C43.6466 6.84709 44.2427 6.87851 44.8088 7.2981C45.7368 7.98585 45.0566 10.1773 45.944 10.8992C45.8553 11.154 45.2861 11.4622 45.0828 11.6038C44.7382 11.8437 44.6579 11.8202 44.2608 11.9952C43.9283 12.1417 43.204 12.4062 42.8908 12.6411C42.8657 12.6411 43.1595 12.2519 43.1343 12.2519C43.2727 11.9373 43.4112 11.6226 43.5496 11.3081C43.7799 10.5341 43.5052 9.29484 43.021 9.11835C42.9602 9.21418 42.8195 9.49613 42.7343 9.56836C42.776 9.92533 43.0377 10.1138 43.1257 10.4491C43.3709 11.3826 42.8696 12.238 42.4407 12.6606C42.1065 12.9899 41.6372 13.1723 41.3643 13.5609C41.1356 13.8865 41.1363 14.9096 41.1363 14.9096C40.925 14.948 40.6138 15.0015 40.0568 15.0207C39.0219 15.0564 38.5169 14.5207 38.1915 13.8936C38.0763 13.6715 38.0328 13.1045 38.0328 13.0919C37.9167 13.1326 37.8978 13.2983 37.8026 13.2745C37.9931 14.8461 38.8492 15.5403 41.0966 15.2906C41.0854 15.5526 41.1204 15.6319 40.8902 15.8938C40.3663 16.1637 40.3822 15.87 39.9933 15.9573C39.7837 16.0044 39.6123 15.9256 39.4615 16.2986C39.3742 16.5526 39.39 16.5923 39.4615 17.013C39.525 17.1479 39.5301 17.2779 39.5091 17.3384C38.7974 17.4826 38.1782 17.0395 37.7788 16.751C36.9215 16.1319 36.6094 15.249 36.1516 14.3063C35.9942 13.9822 35.9216 13.3262 35.6913 13.0284C35.3658 12.6078 34.9638 12.2838 35.4293 11.6711ZM29.2382 18.6242C29.5019 18.5817 29.6124 18.6264 29.8732 18.4972C30.0255 18.4218 30.2304 18.3226 30.3415 18.1083C30.4526 17.894 30.4844 17.6162 30.4526 17.3384C30.4221 17.0717 30.0509 16.7336 29.8732 16.6875C29.4446 16.5764 29.1509 16.7669 29.135 16.2827C29.1222 15.8927 29.7826 15.5927 29.8811 15.5525C30.4843 15.3065 30.5171 15.2231 31.0638 15.116C32.2385 14.8858 32.4984 15.771 32.3083 16.4006C32.2133 16.7153 31.9683 16.7537 31.8027 17.2245C31.8163 17.5806 32.0119 17.7737 32.3083 17.7999C33.0803 17.9453 33.5276 17.2008 34.209 17.4773C34.6661 17.6628 34.6935 18.0359 35.0154 18.3491C35.1316 18.4622 35.4244 18.705 35.5647 18.7938C36.1312 19.1522 36.4671 19.2515 37.3389 19.2036C37.3476 19.1776 37.4348 19.0423 37.4348 19.0423C37.3383 18.9859 37.0294 19.0292 36.4802 18.8984C35.7478 18.5933 35.835 18.5845 35.4078 18.2707C35.0459 17.8478 34.9035 17.3025 34.3092 17.1329C33.715 16.9633 32.9435 17.4048 32.8751 17.4599C32.5786 17.5383 32.3955 17.5035 32.2735 17.4163C32.0457 17.2536 32.4419 17.0146 32.5699 16.636C32.9074 15.6377 32.3565 14.5349 31.3929 14.5549C31.4527 14.3381 31.4932 14.2691 31.7155 14.0945C31.9219 14.0866 32.2695 14.3218 32.692 14.2079C33.29 14.0466 33.5115 13.8853 33.9736 13.5801C34.3398 13.3186 34.9403 13.022 35.107 13.1094C35.3162 13.2314 35.7927 14.5417 36.0399 15.0187C36.3373 15.5929 36.7989 16.6486 37.2866 16.9891C37.7487 17.3117 37.9083 17.3877 38.2947 17.5448C38.6112 17.6735 39.005 17.8119 39.3878 17.7912C39.2555 17.8835 38.907 17.8592 38.7426 17.9307C38.3416 18.105 38.1938 18.4038 38.2195 18.5453C38.298 18.9769 38.1803 19.5916 38.1803 19.5916C38.1803 19.5916 37.1735 19.3166 36.8332 19.6569C36.1663 20.3239 36.1918 20.6895 35.2901 21.0301C34.7016 21.2524 33.6292 21.1478 33.3284 21.2655C33.0289 21.3827 32.5771 21.7894 32.3737 22.1025C32.1585 22.4339 32.2648 22.7258 31.7939 22.9351C31.6381 22.9778 31.3376 22.7516 31.1706 22.6648C30.5681 22.352 29.6797 21.9455 29.1173 22.3117C29.0922 22.3117 28.8025 22.5079 28.7774 22.5079C28.6113 22.1852 28.8558 21.2169 28.8558 20.9778C28.9136 20.7318 29.0244 20.0809 28.9212 19.6046C28.8549 19.2988 28.5556 19.0529 28.5953 18.9259C28.7699 18.7195 29.0191 18.6596 29.2382 18.6242ZM27.8968 31.4356C27.7398 30.8428 27.4955 30.58 27.269 30.2412C27.0454 29.9067 26.9631 29.5622 26.5628 29.413C26.7111 28.7329 27.0249 28.2098 27.6091 27.9744C27.6091 27.9492 26.1966 27.9918 26.0746 27.7216C26.0397 26.5794 25.7607 26.2394 25.6648 25.9953C25.5689 25.7512 25.3335 25.4373 25.4033 25.0537C25.4621 24.9969 25.6313 24.6935 25.9961 24.8096C26.3797 24.9317 26.4669 25.0537 26.6719 25.1716C26.9104 25.3087 27.213 25.2617 27.4093 25.069C27.6455 24.8371 27.8631 24.5889 27.9578 24.5219C28.5986 24.0685 29.5196 24.4479 30.0197 24.5611C30.5908 24.6439 30.8523 24.3998 30.8523 24.3998C30.8649 24.3872 29.9033 24.3222 29.3528 24.1818C29.1632 24.1335 28.6235 23.9688 28.3588 24.038C27.8661 24.1667 27.4521 24.6962 26.929 24.7486C26.1966 24.1731 26.3187 24.1077 26.3187 23.3361C26.3187 23.2502 27.0602 23.7308 27.7137 23.6849C28.4591 23.6326 29.3855 22.9487 29.6841 22.9351C30.0677 22.9177 30.526 22.9996 30.8 23.2315C31.1401 23.5192 31.1865 23.6517 31.6544 23.6849C31.4382 24.4405 30.3133 24.8713 30.0328 25.4983C29.8846 25.8296 30.4513 26.1348 30.7913 26.7276C30.9818 27.0598 31.1401 27.6082 31.0354 27.8C30.8278 27.6913 30.3902 27.3728 30.0154 27.3031C29.202 27.1162 28.1591 27.6513 28.2978 27.9308C28.2641 27.9217 29.0649 27.4949 29.3876 27.4774C30.3554 27.4251 30.6866 27.9129 31.0616 28.2098C31.1116 28.7327 30.6776 29.6704 31.018 30.1627C31.1602 30.3408 31.9522 30.6489 32.2909 30.6771C32.2491 30.8039 32.1514 30.8951 32.0642 31.052C32.0105 31.1005 31.6893 30.9561 31.2011 30.9736C30.9872 30.9861 30.3205 31.0956 30.0503 31.1567C29.2094 31.3838 28.7163 31.8454 28.1932 32.3773C28.0309 32.1675 27.9707 31.7148 27.8968 31.4356ZM39.4924 42.7959C39.4663 42.9354 39.3878 42.9441 38.577 42.7261C37.7661 42.5082 37.0512 43.1621 37.0512 43.1621C37.0512 43.1621 36.8245 43.1882 36.6327 42.7872C36.5152 42.5415 36.5125 42.4387 36.3712 42.2728C36.1706 42.0374 36.066 41.8281 35.5429 41.7671C35.1506 41.6799 34.8803 41.7584 34.7234 41.5753C34.4705 41.4096 34.6178 40.9743 34.4444 40.5727C34.3995 40.4686 34.4008 40.2588 34.2874 40.1106C34.1741 39.9624 34.1323 39.8247 33.8079 39.788C33.4836 39.7512 33.3023 39.8141 33.1017 40.0408C32.9192 40.2471 32.6484 40.3024 32.4478 40.2849C32.2473 40.2675 32.1427 40.189 32.0294 40.0234C31.916 39.8577 32.1708 39.023 32.1427 38.9685C32.134 38.4628 31.4888 38.3146 31.0529 38.2623C30.617 38.21 29.4661 38.2186 29.3092 37.3207C29.2355 36.8992 29.283 36.2744 29.1522 35.7513C29.0431 35.3147 28.6373 35.4871 28.2106 34.8446C28.1281 34.4987 28.1066 33.9321 28.2594 33.4695C28.4306 32.9508 28.7902 32.5659 29.2918 32.1593C29.6143 31.8977 30.1473 31.5274 30.521 31.4444C30.9919 31.3398 31.5673 31.3746 31.9422 31.4618C31.9788 31.59 31.8201 31.7495 31.9509 32.1854C32.033 32.4593 32.3018 32.4935 32.2125 33.0922C32.1253 33.6763 31.8261 33.8458 31.8463 33.903C32.2125 34.1122 32.6841 34.0183 33.0233 34.025C32.9969 35.3631 33.3392 35.5018 34.1828 35.9518C34.4803 36.1106 35.0599 36.3517 35.4296 36.4314C35.5034 36.9118 35.0012 37.2091 34.9418 37.6979C34.889 38.1315 35.0808 38.7592 35.3337 38.9859C36.2558 39.8127 36.9466 39.2213 36.9466 39.2213C36.9466 39.2213 36.9728 40.1542 37.1384 40.6947C37.194 40.876 37.2866 41.183 37.6005 41.3835C37.9144 41.584 38.0103 41.4096 38.5944 41.2963C38.8908 41.305 39.1785 41.5143 39.3791 41.8979C39.6232 42.2815 39.5186 42.6564 39.4924 42.7959ZM52.9125 38.302C52.6524 38.3327 52.1133 38.0973 51.9637 37.9014C51.4746 37.9065 51.3831 38.4023 51.1326 38.5048C50.8291 38.4425 50.6182 38.4367 50.5406 38.1519C50.5406 37.9128 50.5292 37.1841 50.4609 36.797C50.3812 36.4896 50.061 36.3948 49.9713 36.4669C49.6643 36.5928 49.8689 36.8426 49.8461 37.2638C49.8228 37.6952 49.8347 37.7078 49.607 38.7325C49.589 38.8136 49.2298 40.1191 49.0036 40.4972C48.2807 41.7052 47.8012 42.482 46.9119 42.918C46.5545 43.0931 45.3425 42.7087 44.8368 43.4062C44.5562 43.7933 44.059 43.524 43.6162 43.3364C43.2455 43.1794 42.9573 42.836 42.6279 42.649C42.2066 42.4099 42.0358 42.1692 41.7854 41.9415C41.5521 41.7294 41.0613 41.779 40.7493 41.6926C40.3896 41.5931 40.3256 41.4204 40.0762 41.2468C39.9148 41.1344 39.7117 40.6668 39.5477 40.4917C39.5359 40.4865 39.6417 40.259 39.6987 40.1897C39.9755 39.9128 40.2247 39.7008 40.5016 39.424C40.9153 38.7924 40.6258 38.0443 40.5277 37.8481C40.4296 37.652 40.4492 37.7108 40.3642 37.3708C40.282 37.0417 40.782 36.8675 40.6844 36.8743C40.8219 36.8632 42.2296 36.7098 42.6986 36.5404C43.2495 36.3414 43.491 36.2677 43.9345 35.9257C44.094 35.8027 44.4576 35.638 44.4314 35.3634C44.4053 35.0887 44.196 35.0037 44.1045 34.8403C44.0129 34.6768 43.9127 34.5596 43.9127 34.1995C43.9127 34.0556 43.9454 33.308 44.1742 33.066C44.4671 32.7564 44.9035 32.5024 45.1507 32.4557C45.7392 32.3446 46.1751 32.4942 46.7331 32.617C47.1712 32.689 48.1527 32.7061 48.4267 32.6824C48.8299 32.6476 49.0184 32.3287 49.1089 32.229C49.2593 32.4121 49.5968 32.9368 49.7715 33.1009C49.9873 33.3036 50.808 33.7736 50.7796 33.8141C50.0965 34.0191 48.7058 33.489 48.0627 33.8333C47.3137 34.2341 46.223 33.8158 45.8482 34.0774C45.4733 34.3389 45.6041 35.1846 45.4733 35.4375C45.2537 35.862 44.9872 36.2025 44.5491 36.4575C44.3625 36.5661 44.0183 36.7946 43.8364 36.9065C43.4804 37.1254 43.0916 37.2901 42.7444 37.5081C42.3287 37.7691 42.0725 37.9311 41.6851 38.2143C41.1692 38.5915 40.5048 39.7182 40.9266 40.516C41.0902 40.6796 41.2535 40.9672 41.5007 41.0095C41.6583 40.9788 41.6891 40.756 41.6328 40.6664C41.5896 40.5614 41.2862 40.4571 41.2466 39.9632C41.2441 38.6954 42.6194 37.8987 43.4702 37.4493C43.9841 37.1778 44.8461 36.6776 45.0025 36.6929C45.4471 36.7365 45.2292 38.3233 45.0722 38.7069C44.9943 38.8974 44.2963 39.0557 44.5491 39.5526C44.7631 39.9732 45.1943 39.666 45.2989 39.5352C45.5522 39.2186 45.482 39.0644 45.5256 38.5413C45.5692 38.0182 45.5779 37.9048 45.5866 37.373C45.6041 36.8063 45.5343 36.6406 45.5343 36.6406C45.4616 36.6446 46.5408 35.78 47.0862 35.5247C47.6213 35.7068 47.7853 36.6946 47.8309 36.9337C47.8764 37.1728 46.9491 37.552 47.3869 38.0039C47.7398 38.3682 48.0684 37.8014 48.1269 37.5599C48.218 37.1842 48.006 36.1681 47.6374 35.6244C47.5176 35.4478 47.5067 35.4049 47.4001 35.1934C47.8284 34.9059 48.023 34.4184 48.5683 34.2518C48.8038 34.1798 49.4314 34.1892 49.6298 34.2582C49.7795 34.3102 50.2757 34.5332 50.5064 34.6453C50.9049 34.8388 51.666 35.4296 51.884 35.7269C52.102 36.0241 52.1897 36.4124 52.3508 36.706C52.5112 36.6748 52.4773 36.859 52.5671 36.7743C52.5616 35.7491 51.4302 34.827 50.7606 34.4134C50.5902 34.3081 50.5464 34.3656 50.404 34.2354C50.3788 34.2354 50.6973 34.1811 51.1076 34.1733C51.5195 34.6862 51.9904 34.7422 52.5963 35.3503C52.8339 35.9323 52.7941 35.7618 52.8666 36.1088C52.854 36.222 52.8993 36.0827 52.9712 36.7627C53.0628 37.3708 53.0325 37.7422 52.9125 38.302ZM65.3428 30.3153C65.2612 30.9254 64.4874 31.1951 64.2443 31.7539C63.9378 32.4584 64.3838 32.5996 63.9304 33.454C63.7755 33.746 62.9714 34.2169 62.0472 34.0425C61.8912 34.0131 61.2669 34.3956 61.0402 34.6571C60.472 35.3127 60.661 35.481 60.4256 36.0564C60.1599 36.7059 59.7455 37.5168 59.3794 37.5342C58.9488 37.5226 57.3392 36.4226 57.13 36.4488C56.6969 36.5029 56.4581 36.686 56.0445 36.998C55.969 37.0861 55.2511 37.8743 54.8152 37.7697C54.2659 37.5866 54.1536 36.8585 54.0141 36.1784C53.9899 36.0604 54.099 35.4667 53.9913 35.3241C53.8949 35.0621 53.6513 34.9841 53.3243 34.8795C53.1491 34.8234 52.592 34.7879 52.592 34.7879C52.592 34.7879 52.1687 34.5086 51.5196 33.9902C51.4647 33.9463 51.0496 33.6266 50.996 33.575C50.8775 33.4611 50.5352 33.1951 50.4723 33.1196C50.1956 32.9142 49.9176 32.7369 49.6844 32.386C49.3473 31.8787 49.4535 31.4986 49.3356 30.7992C49.2375 30.2172 48.6067 30.076 48.394 29.6658C48.2901 29.4654 48.0704 28.9467 47.9407 28.4452C47.7656 27.7686 48.0358 26.723 47.993 26.2132C47.9184 25.3257 48.4097 24.8079 48.8823 24.487C49.2625 24.2288 50.3368 24.0754 50.8134 24.0118C51.2057 23.9595 52.2047 23.8234 52.5527 23.5933C52.9049 23.3605 53.2508 22.9706 53.429 22.6517C53.6774 22.2071 54.0111 21.9389 54.0698 21.8802C54.4229 21.5271 54.9083 20.7477 55.3252 20.6116C56.6069 20.1931 57.969 23.0282 59.885 22.4294C61.559 21.9063 62.3315 22.739 63.1109 23.3884C63.4247 23.65 64.0748 24.4513 64.192 24.766C64.2373 24.8876 64.314 25.0973 64.314 25.2891C64.2753 25.9312 63.2852 25.9866 63.2852 26.8584C63.2852 27.138 63.5938 27.5201 63.7386 27.6257C64.0014 27.8171 64.7412 28.3798 64.9636 28.9291C65.3023 29.766 65.3873 29.9827 65.3428 30.3153ZM44.0173 25.6029C43.9391 25.0961 43.5956 25.0267 43.5988 24.766C43.6049 24.2746 43.6352 24.0911 43.3024 23.5977C42.7967 22.8479 41.733 23.2838 41.2797 22.9177C41.004 22.695 40.7372 22.1156 40.6868 22.1156C40.2335 22.5689 40.3061 22.8439 39.7627 22.9525C38.7164 23.1618 37.7748 23.0571 36.7112 22.9874C36.3145 22.9614 35.8655 22.6823 35.6213 22.5273C35.5375 22.4944 35.496 22.5509 35.3948 22.6028C35.4467 22.9839 36.1727 23.1619 36.4845 23.3361C36.9181 23.5784 37.5055 23.706 38.0753 23.8487C38.4552 23.9439 38.7428 23.9705 39.0129 24.0336C39.3791 24.0598 39.9545 24.0511 40.4253 23.9639C41.0356 23.8505 41.053 24.3998 40.6869 24.6614C40.2532 24.9711 40.0068 25.1845 38.8037 25.2542C38.5815 25.2671 38.2782 25.3098 38.0015 25.2019C37.7382 25.0992 37.5015 24.8458 37.2866 24.8532C37.0338 24.8619 36.8856 25.1147 36.8856 25.3937C36.8856 25.6727 37.0251 25.6466 37.2169 25.7773C37.3157 25.8447 38.8052 25.8972 39.6581 25.7773C40.4604 25.6646 40.4427 25.7599 40.4427 25.7599C40.4427 25.7599 39.937 26.283 39.0652 26.6143C38.8164 26.7089 37.7637 26.6946 37.3041 26.7712C36.9902 26.8235 36.9117 27.2508 36.9553 27.4164C36.9989 27.5821 37.1907 27.7651 37.5308 27.8C38.4866 27.7812 39.3861 27.3408 40.094 27.0328C40.4144 26.8934 40.7043 26.7364 40.7043 26.7364C40.7043 26.7364 41.0007 26.5445 41.053 26.8061C41.1053 27.0677 41.0704 27.1985 40.5299 27.678C40.1859 27.9831 39.7976 28.358 39.5883 28.515C39.2816 28.745 38.9206 29.1109 38.3677 29.1776C37.8148 29.2442 36.9553 29.3519 37.0948 29.9448C37.1645 30.2409 37.8446 30.1715 38.3328 30.0843C38.8211 29.9971 39.815 29.3519 40.1114 29.1427C40.774 28.6544 41.3399 28.2581 41.5413 28.0441C42.0382 27.582 42.3482 26.9107 42.3608 26.9107C42.7095 27.7477 42.3183 28.4704 42.2039 28.6893C42.062 28.9606 41.8122 29.2129 41.5936 29.4217C41.5977 29.5292 42.4586 29.4718 42.8142 29.1601C43.5922 28.6194 43.7872 28.4092 43.8778 27.8872C43.9178 27.6569 43.8274 27.1624 43.686 26.5969C43.6162 26.3179 44.0915 26.084 44.0173 25.6029ZM55.5998 27.6213C55.0497 27.3752 54.6784 28.2517 54.5013 28.1706C54.0828 27.9788 53.6513 27.5298 53.0366 26.9282C52.7768 26.6739 52.2311 25.8489 52.252 25.8427C52.3561 25.669 52.6271 25.617 52.7996 25.5249C52.9953 25.4205 53.9566 25.2631 54.1657 25.2542C54.6406 25.2341 55.1028 25.3645 55.2468 25.3763C56.1853 25.4532 55.8927 25.4096 55.9268 25.3414C56.0663 25.0624 56.0311 24.9145 55.2119 24.8183C54.6013 24.7466 53.826 24.8139 53.4856 24.8357C53.0925 24.861 52.3871 25.0101 51.8117 25.2019C51.2708 25.3822 49.9502 25.385 49.6233 26.0912C49.2572 26.8821 49.7454 27.9134 50.2947 28.8288C50.6758 29.464 51.2886 30.0494 51.6024 30.433C51.806 30.6818 52.8886 31.7743 53.4159 31.7931C53.9041 31.8105 54.0262 31.3572 53.6425 30.9038C53.4411 30.6658 53.1255 30.6198 52.8579 30.4505C52.6158 30.2973 52.3081 29.9604 51.9686 29.5961C51.8089 29.4246 51.4368 28.6675 51.2014 28.079C51.0967 27.5428 51.254 27.3776 51.6242 26.8105C51.6242 26.8105 51.9468 27.0938 52.5397 27.739C53.1325 28.3842 53.6707 28.6473 54.0697 28.8768C54.5929 29.1776 55.2119 29.2299 55.5257 29.1078C55.7208 29.032 55.919 28.7481 55.966 28.4844C56.0314 28.1183 56.0968 27.8436 55.5998 27.6213Z" fill="#6F1D46"/>
<path fill-rule="evenodd" clip-rule="evenodd" d="M58.5312 27.6345C58.5312 27.6345 59.3421 28.3145 60.336 28.6807C61.3299 29.0469 62.5445 28.9714 62.9385 28.9553C63.5793 28.9292 64.1024 28.6545 64.1024 28.6545C64.1024 28.6545 63.6447 29.2953 62.4807 29.2692C61.5361 29.248 60.6106 29.1515 59.9829 28.8376C59.3552 28.5238 58.8451 28.1053 58.7666 28.0268C58.6882 27.9483 58.5312 27.6345 58.5312 27.6345Z" fill="#6F1D46" stroke="#6F1D46" stroke-width="0.26068"/>
<path fill-rule="evenodd" clip-rule="evenodd" d="M60.0473 34.4483C60.0473 34.4483 59.9651 33.5418 59.5806 32.7655C59.1961 31.9893 58.4089 31.4156 58.1587 31.2234C57.7516 30.9109 57.2656 30.8374 57.2656 30.8374C57.2656 30.8374 57.934 30.6147 58.6286 31.2351C59.1923 31.7386 59.6987 32.2861 59.8914 32.8356C60.0841 33.385 60.1414 33.9486 60.1417 34.0454C60.142 34.1422 60.0473 34.4483 60.0473 34.4483Z" fill="#6F1D46" stroke="#6F1D46" stroke-width="0.26068"/>
<path fill-rule="evenodd" clip-rule="evenodd" d="M62.2541 17.4483C62.2541 17.4483 62.1374 18.6562 61.3331 19.4932C60.5288 20.3302 59.8383 20.5259 59.4443 20.6327C58.8033 20.8066 58.3984 20.9762 58.3984 20.9762L58.3672 21.1166C58.3672 21.1166 58.6735 21.2386 59.8033 20.8201C60.7202 20.4804 61.2033 20.1492 61.6894 19.5178C62.2853 18.7439 62.5351 17.8541 62.5195 17.4951C62.5133 17.3541 62.2541 17.4483 62.2541 17.4483Z" fill="#6F1D46" stroke="#6F1D46" stroke-width="0.26068"/>
<path fill-rule="evenodd" clip-rule="evenodd" d="M58.6406 15.4105C58.7904 15.2496 58.9457 15.1054 59.1954 15C59.3653 14.9282 59.6891 14.8391 59.8944 14.8668C60.0996 14.8946 60.1163 14.889 60.2272 14.9556C60.3382 15.0222 60.3826 15.0776 60.3826 15.0776L60.316 15.1886C60.316 15.1886 60.2272 15.0555 60.022 15.0277C59.8167 15 59.6614 15 59.5338 15.0388C59.2815 15.1156 59.151 15.1831 59.0511 15.2607C58.8932 15.3836 58.7682 15.5159 58.7682 15.5159L58.6406 15.4105Z" fill="#6F1D46" stroke="#6F1D46" stroke-width="0.26068"/>
<path d="M107.288 60.068V58.6477L108.708 57.8448C109.387 57.474 109.696 57.289 109.943 56.9182C110.375 56.2391 110.499 55.4979 110.499 53.9543V25.6716C110.499 22.3985 110.252 21.4107 109.82 20.9782C109.511 20.6694 109.017 20.4224 107.535 20.2991L105.25 20.1137V17.8288C108.955 17.8905 111.919 18.0143 115.13 18.0143C119.329 18.0143 124.64 17.8288 127.728 17.8288C135.385 17.8288 139.152 20.6078 139.152 26.1657C139.152 32.2173 134.212 34.5021 128.16 36.4782V36.6019C136.065 36.9107 140.573 39.6892 140.573 46.8528C140.573 54.4484 133.471 60.068 124.146 60.068C122.417 60.068 117.847 59.8825 114.945 59.8825C112.413 59.8825 109.758 60.0059 107.288 60.068ZM119.206 35.1816H121.244C127.481 35.1816 130.013 32.7114 130.013 27.5239C130.013 22.7693 127.604 20.9165 122.849 20.9165C121.429 20.9165 120.07 21.0398 119.206 21.1636L119.206 35.1816ZM119.206 56.4245C119.823 56.5478 120.503 56.6716 122.479 56.6716C128.407 56.6716 131.31 53.6455 131.31 47.3469C131.31 41.2949 128.345 38.3926 121.182 38.3926H119.206V56.4245Z" fill="#231F20"/>
<path d="M171.014 32.2797C171.014 41.0684 165.516 46.2955 156.302 46.2955C147.436 46.2955 142.363 41.4172 142.363 32.7446C142.363 23.8781 147.939 18.7288 157.076 18.7288C165.903 18.7288 171.014 23.6459 171.014 32.2797ZM156.34 44.1273C162.38 44.1273 165.206 40.2944 165.206 32.9768C165.206 26.085 162.264 20.8971 156.998 20.8971C151.23 20.8971 148.171 24.4978 148.171 32.0862C148.171 39.0554 151.191 44.1273 156.34 44.1273Z" fill="#231F20"/>
<path d="M188.78 40.7591C188.78 42.6951 188.896 43.3918 189.129 43.6627C189.283 43.8567 189.67 44.0115 190.6 44.0889L192.071 44.205V45.7535C190.755 45.7148 188.509 45.6374 186.148 45.6374C184.289 45.6374 181.385 45.7148 180.03 45.7535V44.205L181.501 44.0889C182.43 44.0115 182.818 43.8567 182.973 43.6627C183.205 43.3918 183.321 42.6177 183.321 40.7978V21.6719H178.753C177.475 21.6719 176.739 21.7106 176.43 21.9815C176.197 22.175 176.081 22.562 176.042 22.9495L175.849 25.6209H174.3C174.223 22.2911 173.952 20.3942 173.797 19.4649L174.029 19.2714C178.056 19.3101 182.121 19.3875 186.031 19.3875C190.019 19.3875 194.084 19.3101 198.073 19.2714L198.305 19.4649C197.956 21.4784 197.879 23.4139 197.802 25.6209H196.253L196.059 22.9882C196.02 22.4072 195.788 21.9428 195.401 21.8267C194.937 21.6719 194.162 21.6719 193.426 21.6719H188.78V40.7591Z" fill="#231F20"/>
<path d="M212.313 19.0778L222.379 42.5789C222.921 43.8179 223.656 44.0888 224.47 44.2049L225.399 44.321V45.7535C222.766 45.7147 221.139 45.6373 219.398 45.6373C217.655 45.6373 215.642 45.7147 213.396 45.7535V44.321L215.332 44.2049C215.952 44.1662 216.222 43.74 216.222 43.0821C216.222 42.7724 216.106 42.3463 215.913 41.8818L214.249 37.6619H204.531L203.02 41.6883C202.865 42.0753 202.711 42.5398 202.711 42.9272C202.711 43.7013 203.175 44.1662 203.949 44.2049L205.769 44.321V45.7535C204.182 45.7147 202.401 45.6373 201.394 45.6373C200.155 45.6373 198.606 45.7147 197.02 45.7535V44.321L198.142 44.2049C198.722 44.1275 199.109 43.8566 199.497 43.3917C199.923 42.8498 200.155 42.3076 200.62 41.2234L207.125 25.466C207.937 23.4526 209.564 19.0778 209.564 19.0778H212.313ZM205.459 35.4936H213.358L209.332 25.6595L205.459 35.4936Z" fill="#231F20"/>
<path d="M227.293 19.2714C228.841 19.3101 230.351 19.3875 231.9 19.3875C232.984 19.3875 234.107 19.3101 235.191 19.2714C236.508 20.9748 237.553 22.4846 238.986 24.1885L251.258 38.5134V24.2272C251.258 22.0976 251.103 21.5171 250.832 21.2457C250.639 21.0522 250.329 20.8974 249.4 20.82L247.967 20.7038V19.2714C249.439 19.3101 250.948 19.3875 252.42 19.3875C253.892 19.3875 255.362 19.3101 256.834 19.2714V20.7038L255.401 20.82C254.395 20.8974 254.085 21.0909 253.892 21.3618C253.62 21.7493 253.542 22.562 253.542 24.382V42.1528C253.542 43.5853 253.62 44.9016 253.659 46.1019L253.388 46.2571L250.213 45.7535L248.316 43.624L245.644 40.5656L232.945 25.2726H232.868V40.7978C232.868 42.6177 232.984 43.3144 233.178 43.624C233.332 43.8567 233.603 44.1276 234.727 44.205L236.159 44.3211V45.7535C235.655 45.7535 233.603 45.6374 231.746 45.6374C230.274 45.6374 228.764 45.7148 227.293 45.7535V44.3211L228.725 44.205C229.81 44.1276 230.08 43.8954 230.235 43.6627C230.468 43.3531 230.584 42.6951 230.584 40.7978V24.2272C230.584 22.175 230.429 21.5171 230.158 21.2457C229.964 21.0522 229.616 20.8974 228.764 20.82L227.293 20.7038L227.293 19.2714Z" fill="#231F20"/>
<path d="M272.041 20.82L270.609 20.9361C269.563 21.0135 269.215 21.207 269.099 21.3618C268.867 21.6332 268.75 22.4072 268.75 24.2271V40.7591C268.75 42.6951 268.867 43.3918 269.099 43.6627C269.254 43.8567 269.641 44.0115 270.57 44.0889L272.041 44.205V45.7535C270.725 45.7148 268.48 45.6374 266.118 45.6374C264.259 45.6374 261.355 45.7148 260 45.7535V44.205L261.472 44.0889C262.4 44.0115 262.788 43.8567 262.943 43.6627C263.175 43.3918 263.292 42.6177 263.292 40.7978V24.2271C263.292 22.4459 263.175 21.6332 262.943 21.3618C262.788 21.1683 262.4 21.0135 261.472 20.9361L260 20.82V19.2714C261.201 19.3101 263.717 19.3875 266.04 19.3875C268.363 19.3875 270.648 19.3101 272.041 19.2714V20.82Z" fill="#231F20"/>
<path d="M299.954 20.5488L300.186 20.9745C299.875 22.136 299.643 23.9559 299.295 26.8983H297.785L297.592 23.5685C295.733 21.6329 293.333 20.8971 290.623 20.8971C284.621 20.8971 280.789 25.0009 280.789 31.5831C280.789 38.9393 285.125 43.779 292.21 43.779C294.649 43.779 297.631 42.9271 299.604 41.8042L300.07 42.2687L299.217 44.166C296.546 45.792 293.41 46.2955 290.313 46.2955C280.866 46.2955 274.98 40.7975 274.98 32.0862C274.98 23.375 281.95 18.7288 290.507 18.7288C294.533 18.7288 296.817 19.2711 299.954 20.5488Z" fill="#231F20"/>
<path d="M317.332 19.0778L327.398 42.5789C327.941 43.8179 328.676 44.0888 329.489 44.2049L330.419 44.321V45.7535C327.786 45.7147 326.16 45.6373 324.417 45.6373C322.675 45.6373 320.662 45.7147 318.417 45.7535V44.321L320.353 44.2049C320.972 44.1662 321.243 43.74 321.243 43.0821C321.243 42.7724 321.127 42.3463 320.933 41.8818L319.268 37.6619H309.55L308.041 41.6883C307.885 42.0753 307.73 42.5398 307.73 42.9272C307.73 43.7013 308.195 44.1662 308.97 44.2049L310.789 44.321V45.7535C309.202 45.7147 307.421 45.6373 306.414 45.6373C305.175 45.6373 303.627 45.7147 302.039 45.7535V44.321L303.162 44.2049C303.743 44.1275 304.13 43.8566 304.517 43.3917C304.943 42.8498 305.175 42.3076 305.64 41.2234L312.144 25.466C312.958 23.4526 314.583 19.0778 314.583 19.0778H317.332ZM310.48 35.4936H318.378L314.351 25.6595L310.48 35.4936Z" fill="#231F20"/>
<path d="M344.932 19.2714V20.82L343.5 20.9361C342.415 21.0135 342.106 21.207 341.989 21.3618C341.757 21.6332 341.641 22.4072 341.641 24.2271V43.3918C342.609 43.4305 344.196 43.5079 346.326 43.5079C348.842 43.5079 351.243 43.1209 351.32 42.8499L352.211 38.9009H353.721L353.294 45.3278L353.101 45.6374C351.553 45.7535 349.152 45.7922 346.519 45.7922C342.763 45.7922 341.409 45.6374 338.815 45.6374C337.305 45.6374 335.601 45.7148 334.169 45.7535V44.8629L335.059 44.3598C335.407 44.1663 335.639 44.0502 335.834 43.7793C336.105 43.3918 336.182 42.8112 336.182 41.9206V24.2271C336.182 22.2911 336.066 21.5945 335.795 21.3231C335.601 21.1296 335.252 21.0135 334.324 20.9361L332.891 20.82V19.2714C334.711 19.3101 336.569 19.3875 339.241 19.3875C340.634 19.3875 343.538 19.3101 344.932 19.2714Z" fill="#231F20"/>
<path d="M159.664 54.6024L160.034 55.2819C159.664 56.5785 159.231 59.172 158.614 64.7299H156.206L155.897 59.4191C153.55 56.6401 148.116 55.1582 142.929 55.1582C133.172 55.1582 127.243 61.8893 127.243 72.2022C127.243 83.8117 133.419 92.2098 143.855 92.2098C146.572 92.2098 149.042 91.654 151.698 90.6662V82.5147C151.698 80.6003 150.154 80.2916 148.178 80.2299L144.905 80.1066V77.5747C147.931 77.6364 150.957 77.7597 153.983 77.7597C157.009 77.7597 159.973 77.6364 162.999 77.5747V79.6741C160.652 80.1066 160.467 80.6003 160.467 81.8973V91.9632C154.723 94.1859 148.857 95.6683 142.435 95.6683C127.305 95.6683 117.98 86.7756 117.98 73.0046C117.98 59.7278 128.355 51.7001 142.744 51.7001C148.178 51.7001 153.797 52.1943 159.664 54.6024Z" fill="#231F20"/>
<path d="M181.946 53.9255L192.492 78.545C193.06 79.8429 193.83 80.1269 194.682 80.2484L195.656 80.3703V81.8707C192.898 81.8302 191.194 81.7492 189.369 81.7492C187.544 81.7492 185.435 81.8302 183.082 81.8707V80.3703L185.11 80.2484C185.759 80.2079 186.043 79.7619 186.043 79.0724C186.043 78.748 185.922 78.3015 185.719 77.815L183.975 73.3939H173.794L172.212 77.6121C172.05 78.0176 171.888 78.5045 171.888 78.91C171.888 79.7214 172.375 80.2079 173.186 80.2484L175.092 80.3703V81.8707C173.429 81.8302 171.563 81.7492 170.509 81.7492C169.211 81.7492 167.589 81.8302 165.926 81.8707V80.3703L167.102 80.2484C167.71 80.1674 168.116 79.8834 168.522 79.3969C168.968 78.829 169.211 78.261 169.698 77.1256L176.512 60.618C177.363 58.5087 179.067 53.9255 179.067 53.9255L181.946 53.9255ZM174.768 71.1226H183.042L178.824 60.8209L174.768 71.1226Z" fill="#231F20"/>
<path d="M211.267 81.8706C209.806 81.8301 207.251 81.7491 205.061 81.7491C203.114 81.7491 200.072 81.8301 198.652 81.8706V80.2483L200.194 80.1267C201.167 80.0457 201.573 79.8833 201.735 79.6808C201.978 79.3968 202.1 78.5854 202.1 76.679V59.32C202.1 57.4541 201.978 56.6022 201.735 56.2782C201.573 56.0752 201.248 55.8318 200.153 55.7508L198.652 55.6292V54.1284C200.397 54.1689 203.439 54.2499 204.98 54.2499C208.387 54.2499 212.078 54.1284 214.025 54.1284C219.095 54.1284 221.65 56.2372 221.65 60.1309C221.65 63.4571 219.297 65.9714 215.606 67.3103L222.785 78.1799C223.231 78.8694 223.88 79.5183 224.123 79.6808C224.489 79.9238 224.772 80.0457 225.787 80.2482V81.8706C224.489 81.8301 223.15 81.7491 221.852 81.7491C220.717 81.7491 219.459 81.8301 218.202 81.8706L209.116 67.7968L209.401 67.0668C209.401 67.0668 209.806 67.1073 210.09 67.1073C213.578 67.1073 215.89 64.7145 215.89 61.2668C215.89 57.9816 213.619 56.1562 210.414 56.1562C209.563 56.1562 208.468 56.1967 207.819 56.5212V76.598C207.819 78.6259 207.94 79.3968 208.184 79.6808C208.346 79.8833 208.752 80.0457 209.725 80.1267L211.267 80.2483L211.267 81.8706Z" fill="#231F20"/>
<path d="M229.272 81.8706V80.9382L230.205 80.4107C230.652 80.1673 230.854 80.0457 231.016 79.8023C231.301 79.3563 231.382 78.8694 231.382 77.8554V59.2795C231.382 57.1297 231.219 56.4807 230.935 56.1967C230.733 55.9942 230.408 55.8318 229.435 55.7508L227.934 55.6292V54.1284C230.367 54.1689 232.314 54.2499 234.626 54.2499C237.059 54.2499 241.116 54.1284 244.644 54.1284C254.014 54.1284 258.394 58.225 258.394 66.7828C258.394 76.1926 250.769 81.8706 241.805 81.8706C241.44 81.8706 237.627 81.7491 234.87 81.7491C233.693 81.7491 231.138 81.8301 229.272 81.8706ZM237.101 79.4373C237.75 79.5588 238.844 79.6403 240.589 79.6403C248.091 79.6403 252.31 76.2331 252.31 67.5533C252.31 58.833 248.051 56.1967 239.615 56.1562C238.763 56.1562 237.912 56.1967 237.101 56.3187V79.4373Z" fill="#231F20"/>
<path d="M282.561 54.2502L282.804 54.5341L282.236 60.2936H280.776L280.452 57.2514C280.411 56.9679 279.803 56.7649 278.829 56.6434C277.856 56.5215 276.72 56.481 275.666 56.481C273.354 56.481 271.528 56.562 270.596 56.6025V66.3367C271.204 66.3776 271.569 66.4181 272.988 66.4181H275.909C277.45 66.4181 278.221 66.3367 278.302 65.5662L278.545 63.2544H280.168C280.127 64.7147 280.046 66.1341 280.046 67.5941C280.046 69.0544 280.127 70.5143 280.168 71.9747H278.545L278.302 69.9468C278.18 68.7704 277.369 68.446 275.95 68.446H273.192C272.015 68.446 271.164 68.527 270.596 68.5675V79.3971C271.366 79.4376 273.597 79.5186 275.626 79.5186C277.775 79.5186 280.654 79.1536 280.735 78.8291L281.669 75.0164H283.25L282.804 81.4249L282.601 81.7494C280.939 81.8709 278.505 81.9114 275.828 81.9114C273.719 81.9114 272.826 81.8709 271.407 81.8304C269.947 81.7899 268.69 81.7494 267.635 81.7494C266.053 81.7494 264.269 81.8304 262.768 81.8709V80.9384L263.701 80.411C264.147 80.1675 264.35 80.046 264.512 79.8025C264.796 79.3566 264.877 78.8696 264.877 77.8557V59.2797C264.877 57.1299 264.715 56.481 264.431 56.197C264.228 55.9945 263.903 55.832 262.93 55.751L261.43 55.6295V54.1286C263.66 54.1286 265.809 54.2501 268.081 54.2501C272.137 54.2501 277.815 54.0881 278.829 54.0881C279.681 54.0881 280.776 54.0881 282.561 54.2502Z" fill="#231F20"/>
<path d="M286.613 54.1284C288.235 54.1689 289.818 54.2499 291.439 54.2499C292.575 54.2499 293.752 54.1689 294.888 54.1284C296.266 55.9128 297.361 57.4946 298.862 59.2795L311.72 74.2862V59.32C311.72 57.0891 311.557 56.4807 311.273 56.1967C311.071 55.9942 310.746 55.8318 309.773 55.7508L308.272 55.6292V54.1284C309.813 54.1689 311.395 54.2499 312.936 54.2499C314.477 54.2499 316.018 54.1689 317.56 54.1284V55.6292L316.059 55.7508C315.005 55.8318 314.68 56.0347 314.477 56.3187C314.193 56.7242 314.112 57.5761 314.112 59.482V78.0989C314.112 79.5993 314.193 80.9787 314.234 82.2361L313.95 82.3981L310.624 81.8706L308.637 79.6403L305.839 76.436L292.535 60.4149H292.454V76.6791C292.454 78.5854 292.575 79.3153 292.778 79.6403C292.941 79.8833 293.224 80.1673 294.401 80.2483L295.901 80.3702V81.8706C295.374 81.8706 293.224 81.7491 291.277 81.7491C289.737 81.7491 288.154 81.8301 286.613 81.8706V80.3702L288.114 80.2483C289.25 80.1673 289.533 79.9238 289.696 79.6808C289.939 79.3563 290.061 78.6664 290.061 76.6791V59.32C290.061 57.1702 289.899 56.4807 289.615 56.1967C289.412 55.9942 289.047 55.8318 288.154 55.7508L286.613 55.6293L286.613 54.1284Z" fill="#231F20"/>
<path d="M108.609 8.48999C106.838 8.48999 105.621 7.62077 105.621 5.70847V1.53619H107.338V5.48041C107.338 6.50168 107.751 7.03412 108.652 7.03412C109.467 7.03412 109.891 6.59951 109.891 5.54553C109.891 5.56733 109.891 1.53619 109.891 1.53619H111.608V5.55644C111.608 7.52295 110.435 8.48999 108.609 8.48999Z" fill="#231F20"/>
<path d="M122.459 1.53619H124.078V8.39217H122.242L119.384 3.92671V8.32706H117.766V1.53619H119.634L122.459 5.94744V1.53619Z" fill="#231F20"/>
<path d="M130.297 8.32705V1.53619H132.024V8.32706L130.297 8.32705Z" fill="#231F20"/>
<path d="M142.064 8.32706H139.902L137.609 1.53619H139.391L140.999 6.65372L142.597 1.53619H144.4L142.064 8.32706Z" fill="#231F20"/>
<path d="M149.949 8.32705V1.53619H154.915V2.92696H151.644V4.23079H154.274V5.61065H151.644V6.93629H154.915V8.32706L149.949 8.32705Z" fill="#231F20"/>
<path d="M162.614 8.32705H160.887V1.53619C160.887 1.53619 163.679 1.53619 163.614 1.53619C165.418 1.53619 166.363 2.37301 166.363 3.68745C166.363 4.60029 165.885 5.29567 164.972 5.64336L166.711 8.32706H164.766L163.407 6.04527L162.614 6.11038V8.32705ZM163.451 4.80683C164.19 4.75232 164.592 4.44824 164.592 3.79618C164.592 3.19862 164.179 2.90515 163.31 2.90515H162.582V4.82834L163.451 4.80683Z" fill="#231F20"/>
<path d="M175.734 6.42555C175.734 5.96914 175.245 5.8171 174.343 5.56723C173.354 5.29556 172.159 4.83915 172.159 3.48109C172.159 2.22057 173.083 1.38405 174.767 1.38405C175.832 1.38405 176.657 1.62301 177.309 1.9816L176.973 3.40507C176.299 3.04648 175.452 2.80722 174.778 2.80722C174.18 2.80722 173.887 3.01378 173.887 3.38327C173.887 3.82878 174.506 4.00263 175.321 4.23069C176.364 4.51326 177.451 4.99119 177.451 6.28412C177.451 7.57736 176.451 8.48989 174.669 8.48989C173.658 8.48989 172.681 8.22912 172.051 7.87053L172.377 6.43646C173.05 6.79505 173.865 7.06672 174.701 7.06672C175.31 7.06672 175.734 6.83836 175.734 6.42555Z" fill="#231F20"/>
<path d="M183.383 8.32705V1.53619H185.11V8.32706L183.383 8.32705Z" fill="#231F20"/>
<path d="M194.764 2.98117V8.32706H193.037V2.98117H190.875V1.53619H196.927V2.98117H194.764Z" fill="#231F20"/>
<path d="M206.255 5.75209V8.32706H204.56V5.74118L202.191 1.53619H204.028L205.43 4.21989L206.787 1.53619H208.613L206.255 5.75209Z" fill="#231F20"/>
<path d="M224.222 8.48993C222.212 8.48993 220.68 7.24061 220.68 4.94791C220.68 2.79665 222.222 1.37318 224.244 1.37318C226.265 1.37318 227.797 2.6119 227.797 4.9043C227.797 7.05585 226.243 8.48993 224.222 8.48993ZM224.222 2.76395C223.07 2.76395 222.418 3.63317 222.418 4.90431C222.418 6.20814 223.092 7.09918 224.254 7.09918C225.395 7.09918 226.058 6.21905 226.058 4.94792C226.058 3.64408 225.374 2.76395 224.222 2.76395Z" fill="#231F20"/>
<path d="M232.91 1.53619H237.767V2.95966H234.616V4.36132H237.126V5.77359H234.616V8.32706H232.91V1.53619Z" fill="#231F20"/>
<path d="M255.428 3.3288C254.917 3.02471 254.32 2.83997 253.712 2.83997C252.538 2.83997 251.778 3.63317 251.778 4.91521C251.778 6.20814 252.495 7.02315 253.722 7.02315C254.385 7.02315 255.005 6.8057 255.515 6.4689L255.874 8.0011C255.342 8.29428 254.439 8.48993 253.646 8.48993C251.473 8.48993 250.039 7.2406 250.039 4.95881C250.039 2.76394 251.462 1.37318 253.701 1.37318C254.527 1.37318 255.33 1.57974 255.95 1.88382L255.428 3.3288Z" fill="#231F20"/>
<path d="M268.04 8.32706H266.324L265.824 6.88208H263.303L262.814 8.32706H261.098L263.51 1.53619H265.672L268.04 8.32706ZM264.575 2.87274L263.673 5.53463H265.444L264.575 2.87274Z" fill="#231F20"/>
<path d="M273.566 8.32705V1.53619H275.294V6.88208H278.141V8.32706L273.566 8.32705Z" fill="#231F20"/>
<path d="M284.027 8.32705V1.53619H285.755V8.32706L284.027 8.32705Z" fill="#231F20"/>
<path d="M291.988 1.53619H296.845V2.95966H293.694V4.36132H296.204V5.77359H293.694V8.32706H291.988V1.53619Z" fill="#231F20"/>
<path d="M305.808 8.48993C303.798 8.48993 302.266 7.24061 302.266 4.94791C302.266 2.79665 303.808 1.37318 305.83 1.37318C307.85 1.37318 309.383 2.6119 309.383 4.9043C309.383 7.05585 307.829 8.48993 305.808 8.48993ZM305.808 2.76395C304.656 2.76395 304.004 3.63317 304.004 4.90431C304.004 6.20814 304.678 7.09918 305.84 7.09918C306.981 7.09918 307.644 6.21905 307.644 4.94792C307.644 3.64408 306.959 2.76395 305.808 2.76395Z" fill="#231F20"/>
<path d="M317.036 8.32705H315.309V1.53619C315.309 1.53619 318.101 1.53619 318.036 1.53619C319.84 1.53619 320.785 2.37301 320.785 3.68745C320.785 4.60029 320.307 5.29567 319.394 5.64336L321.133 8.32706H319.188L317.83 6.04527L317.036 6.11038V8.32705ZM317.873 4.80683C318.612 4.75232 319.014 4.44824 319.014 3.79618C319.014 3.19862 318.601 2.90515 317.732 2.90515H317.004V4.82834L317.873 4.80683Z" fill="#231F20"/>
<path d="M331.506 1.53619H333.126V8.39217H331.289L328.432 3.92671V8.32706H326.812V1.53619H328.682L331.506 5.94744V1.53619Z" fill="#231F20"/>
<path d="M339.348 8.32705V1.53619H341.075V8.32706L339.348 8.32705Z" fill="#231F20"/>
<path d="M353.568 8.32706H351.851L351.351 6.88208H348.831L348.342 8.32706H346.625L349.037 1.53619H351.199L353.568 8.32706ZM350.102 2.87274L349.2 5.53463H350.971L350.102 2.87274Z" fill="#231F20"/>
<path d="M208.338 95.9071H206.621L206.121 94.4622H203.6L203.111 95.9071H201.395L203.807 89.1166H205.969L208.338 95.9071ZM204.871 90.4531L203.97 93.115H205.741L204.871 90.4531Z" fill="#231F20"/>
<path d="M216.519 90.5616V95.9071H214.791V90.5616H212.629V89.1166H218.681V90.5616H216.519Z" fill="#231F20"/>
<path d="M237.321 93.93C237.321 95.0161 236.745 95.9071 234.571 95.9071H231.605V89.1166H234.55C236.571 89.1166 237.114 89.888 237.114 90.8874C237.114 91.6588 236.636 92.1368 235.854 92.3542C236.723 92.5175 237.321 93.0932 237.321 93.93ZM234.387 90.4095H233.279V91.9741H234.3C235.017 91.9741 235.386 91.6806 235.386 91.1703C235.386 90.67 235.039 90.4095 234.387 90.4095ZM234.387 93.0496H233.279V94.6142H234.441C235.223 94.6142 235.582 94.3643 235.582 93.8322C235.582 93.2564 235.115 93.0496 234.387 93.0496Z" fill="#231F20"/>
<path d="M243.086 95.9071V89.1166H248.051V90.5073H244.781V91.8109H247.41V93.191H244.781V94.5164H248.051V95.9072L243.086 95.9071Z" fill="#231F20"/>
<path d="M255.696 95.9071H253.969V89.1166C253.969 89.1166 256.761 89.1166 256.696 89.1166C258.499 89.1166 259.445 89.9534 259.445 91.2675C259.445 92.1804 258.967 92.8758 258.054 93.2234L259.792 95.9071H257.848L256.489 93.6254L255.696 93.6908V95.9071ZM256.533 92.3872C257.272 92.3324 257.674 92.0283 257.674 91.3766C257.674 90.779 257.261 90.4855 256.391 90.4855H255.664V92.4084L256.533 92.3872Z" fill="#231F20"/>
<path d="M267.156 92.1156L269.416 89.1166H271.394L268.71 92.4302L271.459 95.9071H269.395L267.156 92.9194H267.145V95.9071H265.418V89.1166H267.145V92.1156H267.156Z" fill="#231F20"/>
<path d="M276.953 95.9071V89.1166H281.919V90.5073H278.649V91.8109H281.278V93.191H278.649V94.5164H281.919V95.9072L276.953 95.9071Z" fill="#231F20"/>
<path d="M287.836 95.9071V89.1166H289.564V94.4622H292.411V95.9071H287.836Z" fill="#231F20"/>
<path d="M298.23 95.9071V89.1166H303.196V90.5073H299.926V91.8109H302.555V93.191H299.926V94.5164H303.196V95.9072L298.23 95.9071Z" fill="#231F20"/>
<path d="M312.579 93.3325V95.9071H310.885V93.3213L308.516 89.1166H310.352L311.754 91.8003L313.112 89.1166H314.937L312.579 93.3325Z" fill="#231F20"/>
</svg>
